{
  "accessors": [
    {
      "bufferView": 2,
      "componentType": 5126,
      "count": 96,
      "max": [
        0.6875,
        0.48213666677474976,
        0.5183340311050415
      ],
      "min": [
        -0.6875,
        -0.040854260325431824,
        -0.5050969123840332
      ],
      "type": "VEC3"
    },
    {
      "bufferView": 2,
      "byteOffset": 1152,
      "componentType": 5126,
      "count": 96,
      "max": [
        1,
        0.99619477987289429,
        0.99619472026824951
      ],
      "min": [
        -1,
        -0.99619477987289429,
        -0.99619477987289429
      ],
      "type": "VEC3"
    },
    {
      "bufferView": 1,
      "componentType": 5126,
      "count": 96,
      "max": [
        0.421875,
        0.8125
      ],
      "min": [
        0,
        0
      ],
      "type": "VEC2"
    },
    {
      "bufferView": 0,
      "componentType": 5125,
      "count": 144,
      "max": [
        95
      ],
      "min": [
        0
      ],
      "type": "SCALAR"
    },
    {
      "bufferView": 2,
      "byteOffset": 2304,
      "componentType": 5126,
      "count": 96,
      "max": [
        0.625,
        1.0316016674041748,
        0.40470409393310547
      ],
      "min": [
        -0.625,
        -0.086774766445159912,
        -0.59459513425827026
      ],
      "type": "VEC3"
    },
    {
      "bufferView": 2,
      "byteOffset": 3456,
      "componentType": 5126,
      "count": 96,
      "max": [
        1,
        0.99619477987289429,
        0.99619477987289429
      ],
      "min": [
        -1,
        -0.99696874618530273,
        -0.99619477987289429
      ],
      "type": "VEC3"
    },
    {
      "bufferView": 1,
      "byteOffset": 768,
      "componentType": 5126,
      "count": 96,
      "max": [
        1,
        0.984375
      ],
      "min": [
        0.296875,
        0
      ],
      "type": "VEC2"
    },
    {
      "bufferView": 0,
      "byteOffset": 576,
      "componentType": 5125,
      "count": 144,
      "max": [
        95
      ],
      "min": [
        0
      ],
      "type": "SCALAR"
    },
    {
      "bufferView": 2,
      "byteOffset": 4608,
      "componentType": 5126,
      "count": 337,
      "max": [
        0.20343494415283203,
        0.097288161516189575,
        0.19223374128341675
      ],
      "min": [
        -0.1875,
        -0.078603878617286682,
        -0.64472353458404541
      ],
      "type": "VEC3"
    },
    {
      "bufferView": 2,
      "byteOffset": 8652,
      "componentType": 5126,
      "count": 337,
      "max": [
        1,
        0.99619472026824951,
        0.99619472026824951
      ],
      "min": [
        -1,
        -0.99978113174438477,
        -0.99619472026824951
      ],
      "type": "VEC3"
    },
    {
      "bufferView": 1,
      "byteOffset": 1536,
      "componentType": 5126,
      "count": 337,
      "max": [
        0.99224776029586792,
        0.4434354305267334
      ],
      "min": [
        0.75,
        0.109375
      ],
      "type": "VEC2"
    },
    {
      "bufferView": 0,
      "byteOffset": 1152,
      "componentType": 5125,
      "count": 507,
      "max": [
        336
      ],
      "min": [
        0
      ],
      "type": "SCALAR"
    },
    {
      "bufferView": 2,
      "byteOffset": 12696,
      "componentType": 5126,
      "count": 121,
      "max": [
        0.625,
        0.0625,
        0.24999994039535522
      ],
      "min": [
        -0.625,
        -0.10068131983280182,
        -0.89177775382995605
      ],
      "type": "VEC3"
    },
    {
      "bufferView": 2,
      "byteOffset": 14148,
      "componentType": 5126,
      "count": 121,
      "max": [
        1,
        1,
        1
      ],
      "min": [
        -1,
        -1,
        -1
      ],
      "type": "VEC3"
    },
    {
      "bufferView": 1,
      "byteOffset": 4232,
      "componentType": 5126,
      "count": 121,
      "max": [
        0.96875,
        0.44666397571563721
      ],
      "min": [
        0.4375,
        0
      ],
      "type": "VEC2"
    },
    {
      "bufferView": 0,
      "byteOffset": 3180,
      "componentType": 5125,
      "count": 183,
      "max": [
        120
      ],
      "min": [
        0
      ],
      "type": "SCALAR"
    }
  ],
  "asset": {
    "extras": {
      "author": "Tobalation (https://sketchfab.com/tobalation)",
      "license": "CC-BY-4.0 (http://creativecommons.org/licenses/by/4.0/)",
      "source": "https://sketchfab.com/3d-models/retro-computer-3a496376915846459d77fc14fdd6c1e0",
      "title": "Retro computer"
    },
    "generator": "Sketchfab-10.39.2",
    "version": "2.0"
  },
  "bufferViews": [
    {
      "buffer": 0,
      "byteLength": 3912,
      "byteOffset": 0,
      "name": "floatBufferViews",
      "target": 34963
    },
    {
      "buffer": 0,
      "byteLength": 5200,
      "byteOffset": 3912,
      "byteStride": 8,
      "name": "floatBufferViews",
      "target": 34962
    },
    {
      "buffer": 0,
      "byteLength": 15600,
      "byteOffset": 9112,
      "byteStride": 12,
      "name": "floatBufferViews",
      "target": 34962
    }
  ],
  "buffers": [
    {
      "byteLength": 24712,
      "uri": "scene.bin"
    }
  ],
  "images": [
    {
      "uri": "textures/TextureGrid_emissive.png"
    }
  ],
  "materials": [
    {
      "doubleSided": true,
      "emissiveFactor": [
        1,
        1,
        1
      ],
      "emissiveTexture": {
        "index": 0,
        "texCoord": 0
      },
      "name": "TextureGrid",
      "pbrMetallicRoughness": {
        "baseColorFactor": [
          1,
          1,
          1,
          1
        ],
        "metallicFactor": 1,
        "roughnessFactor": 1
      }
    }
  ],
  "meshes": [
    {
      "primitives": [
        {
          "attributes": {
            "NORMAL": 1,
            "POSITION": 0,
            "TEXCOORD_0": 2
          },
          "indices": 3,
          "material": 0,
          "mode": 4
        }
      ]
    },
    {
      "primitives": [
        {
          "attributes": {
            "NORMAL": 5,
            "POSITION": 4,
            "TEXCOORD_0": 6
          },
          "indices": 7,
          "material": 0,
          "mode": 4
        }
      ]
    },
    {
      "primitives": [
        {
          "attributes": {
            "NORMAL": 9,
            "POSITION": 8,
            "TEXCOORD_0": 10
          },
          "indices": 11,
          "material": 0,
          "mode": 4
        }
      ]
    },
    {
      "primitives": [
        {
          "attributes": {
            "NORMAL": 13,
            "POSITION": 12,
            "TEXCOORD_0": 14
          },
          "indices": 15,
          "material": 0,
          "mode": 4
        }
      ]
    }
  ],
  "nodes": [
    {
      "children": [
        1
      ],
      "name": "RootNode (gltf orientation matrix)",
      "rotation": [
        -0.70710678118654746,
        -0,
        -0,
        0.70710678118654757
      ]
    },
    {
      "children": [
        2
      ],
      "matrix": [
        0.36363637447357178,
        0,
        0,
        0,
        0,
        0.36363637447357178,
        0,
        0,
        0,
        0,
        0.36363637447357178,
        0,
        0,
        0,
        0,
        1
      ],
      "name": "RootNode (model correction matrix)"
    },
    {
      "children": [
        3
      ],
      "name": "root"
    },
    {
      "children": [
        4,
        6,
        8,
        10
      ],
      "matrix": [
        1,
        0,
        0,
        0,
        0,
        2.2204460492503131e-16,
        1,
        0,
        0,
        -1,
        2.2204460492503131e-16,
        0,
        0,
        0,
        0,
        1
      ],
      "name": "GLTF_SceneRootNode"
    },
    {
      "children": [
        5
      ],
      "matrix": [
        1,
        0,
        0,
        0,
        0,
        0.99619469891698176,
        0.087155733315164144,
        0,
        0,
        -0.087155733315164144,
        0.99619469891698176,
        0,
        0,
        0,
        -0.03125,
        1
      ],
      "name": "PC_0"
    },
    {
      "mesh": 0,
      "name": ""
    },
    {
      "children": [
        7
      ],
      "matrix": [
        1,
        0,
        0,
        0,
        0,
        0.99619469891698176,
        0.087155733315164144,
        0,
        0,
        -0.087155733315164144,
        0.99619469891698176,
        0,
        0,
        0.50000005960464478,
        0.031250052154064178,
        1
      ],
      "name": "Monitor_1"
    },
    {
      "mesh": 1,
      "name": ""
    },
    {
      "children": [
        9
      ],
      "matrix": [
        1,
        0,
        0,
        0,
        0,
        0.99619469891698176,
        0.087155733315164144,
        0,
        0,
        -0.087155733315164144,
        0.99619469891698176,
        0,
        0.875,
        0.062500022351741791,
        0.75000005960464478,
        1
      ],
      "name": "Mouse_2"
    },
    {
      "mesh": 2,
      "name": ""
    },
    {
      "children": [
        11
      ],
      "matrix": [
        1,
        0,
        0,
        0,
        0,
        0.99619469891698176,
        0.087155733315164144,
        0,
        0,
        -0.087155733315164144,
        0.99619469891698176,
        0,
        0,
        0.062499992549419403,
        0.81250011920928955,
        1
      ],
      "name": "Keyboard_3"
    },
    {
      "mesh": 3,
      "name": ""
    }
  ],
  "samplers": [
    {
      "magFilter": 9728,
      "minFilter": 9728,
      "wrapS": 10497,
      "wrapT": 10497
    }
  ],
  "scene": 0,
  "scenes": [
    {
      "name": "OSG_Scene",
      "nodes": [
        0
      ]
    }
  ],
  "textures": [
    {
      "sampler": 0,
      "source": 0
    }
  ]
}

