<svg width="88" height="100" viewBox="0 0 88 100" fill="none" xmlns="http://www.w3.org/2000/svg">
<path d="M42.2801 77.6941C42.6635 78.0917 43.2966 78.1032 43.6941 77.7198L50.1727 71.4726C50.5703 71.0893 50.5818 70.4562 50.1984 70.0586C49.8151 69.6611 49.182 69.6496 48.7845 70.0329L43.0257 75.586L37.4726 69.8273C37.0893 69.4297 36.4562 69.4182 36.0586 69.8016C35.6611 70.1849 35.6496 70.818 36.0329 71.2155L42.2801 77.6941ZM43.0002 21.9818L42.0002 76.9818L43.9998 77.0182L44.9998 22.0182L43.0002 21.9818Z" fill="#F8F2DC"/>
<path d="M3.19873 26.4434L44 2.88675L84.8013 26.4434V73.5566L44 97.1133L3.19873 73.5566V26.4434Z" stroke="#F8F2DC" stroke-width="5"/>
</svg>
