<svg width="251" height="251" viewBox="0 0 251 251" fill="none" xmlns="http://www.w3.org/2000/svg">
<path fill-rule="evenodd" clip-rule="evenodd" d="M115.042 52.2917C115.042 46.7442 112.838 41.424 108.915 37.5013C104.993 33.5787 99.6724 31.375 94.125 31.375H52.2917C46.7442 31.375 41.424 33.5787 37.5013 37.5013C33.5787 41.424 31.375 46.7442 31.375 52.2917V94.125C31.375 99.6724 33.5787 104.993 37.5013 108.915C41.424 112.838 46.7442 115.042 52.2917 115.042H94.125C99.6724 115.042 104.993 112.838 108.915 108.915C112.838 104.993 115.042 99.6724 115.042 94.125V52.2917ZM94.125 52.2917H52.2917V94.125H94.125V52.2917Z" fill="#000F08"/>
<path d="M198.708 135.958H219.625V219.625H135.958V198.708H183.92L127.822 142.61C125.917 140.637 124.863 137.996 124.886 135.253C124.91 132.511 126.01 129.888 127.949 127.949C129.888 126.01 132.511 124.91 135.253 124.886C137.996 124.862 140.637 125.917 142.61 127.822L198.708 183.92V135.958Z" fill="#000F08"/>
</svg>
