<svg width="32" height="32" viewBox="0 0 37 37" fill="none" xmlns="http://www.w3.org/2000/svg">
<path d="M18.5 0C8.28273 0 0 8.28273 0 18.5C0 28.7173 8.28273 37 18.5 37C28.7173 37 37 28.7173 37 18.5C37 8.28273 28.7173 0 18.5 0ZM13.9137 5.01393C14.5873 5.37666 15.3836 5.7198 16.3035 6.04364C17.2233 6.36752 18.1367 6.52982 19.0436 6.52982C19.7129 6.52853 20.3805 6.36243 20.9484 5.94642C21.4983 5.61688 22.0305 5.35393 22.7361 5.42161C23.4611 5.50082 24.2245 5.75045 24.99 5.79179C25.9487 6.30998 26.8818 6.9568 27.7887 7.73411C27.3482 7.76001 26.8811 7.80638 26.3888 7.87119C25.8965 7.93598 25.4178 8.03218 24.9514 8.16171C24.485 8.29124 24.0573 8.46051 23.6686 8.66777C23.28 8.87507 22.9948 9.13354 22.8134 9.44447C22.5284 9.91085 22.3279 10.3061 22.2113 10.63C21.9713 11.3015 22.0281 12.373 21.4733 12.8652C21.3567 12.9429 21.2593 13.0333 21.1815 13.1369C21.1038 13.2406 21.0714 13.3762 21.0843 13.5446C21.0973 13.713 21.1819 13.953 21.3374 14.2639C21.4151 14.4453 21.4789 14.6655 21.5307 14.9246C22.0229 14.9231 22.5334 14.849 22.9693 14.5357L25.5348 14.7689C26.1971 14.0229 26.9688 14.0105 27.6329 14.7689C27.8402 14.9761 28.0604 15.2879 28.2936 15.7025L27.2053 16.4405C26.9462 16.3628 26.6356 16.2075 26.2728 15.9743C26.0919 15.8707 25.9099 15.7536 25.7281 15.6241C24.6941 15.1222 22.6695 15.7066 21.5307 15.7799C21.3822 16.0768 21.2625 16.3676 20.9098 16.4406C20.8485 16.6328 20.9077 16.8389 20.8313 17.024C20.339 17.8013 20.1709 18.6174 20.3264 19.4724C20.6114 20.8197 21.3103 21.4932 22.4245 21.4932H22.8521C23.3962 21.4932 23.7787 21.5187 23.9989 21.5705C24.2192 21.6223 24.3293 21.6617 24.3293 21.6876C24.1998 21.9986 24.1546 22.2443 24.1934 22.4257C24.3217 23.0076 24.7416 23.448 24.6983 24.0775C24.6581 24.8781 24.4064 25.5684 24.6796 26.3712C24.9912 27.15 25.3825 27.9957 25.6707 28.7997C25.7873 29.0329 25.9623 29.1755 26.1955 29.2273C26.6619 29.305 27.2449 28.9944 27.9445 28.2948C28.4627 27.7248 28.7607 27.1023 28.8384 26.4287C28.9409 25.8324 29.3613 25.3026 29.4991 24.6796V24.1747C29.6284 23.9156 29.7385 23.6629 29.8294 23.4168C29.9591 23.059 29.9733 22.6031 30.004 22.1926C30.4113 21.7852 30.8088 21.4216 31.0923 20.9098C31.2737 20.5989 31.3258 20.3276 31.2481 20.0945C31.2232 20.0427 31.1583 19.9905 31.0536 19.9387L30.4702 19.7055C30.4802 19.3797 31.0792 19.4282 31.364 19.4724L32.7628 18.6172C32.711 20.3791 32.3678 22.083 31.7331 23.7284C31.0983 25.3737 30.1593 26.8562 28.9157 28.1777C27.2574 29.9914 25.2683 31.2873 22.9493 32.0646C20.6303 32.8419 18.2402 32.9972 15.7787 32.5309C16.2025 31.7822 16.4471 30.9387 16.9455 30.1984C16.9455 29.8098 17.0034 29.4794 17.12 29.2073C17.6147 28.063 18.4218 27.7652 19.3552 26.8761C20.2971 25.8944 20.2882 24.7344 20.3263 23.3195C20.3135 22.4239 18.8816 21.8742 18.2271 21.376C16.71 20.3537 15.7466 18.8496 13.5833 19.2967C12.8102 19.3755 12.623 19.5257 12.0475 19.0448L11.8144 18.9276L11.8343 18.8503L11.9315 18.6558C12.1637 18.413 11.8341 18.1076 11.5227 18.2083C11.4579 18.2213 11.3872 18.2282 11.3095 18.2282C11.2384 17.8811 11.0055 17.5582 10.9592 17.1786C11.3219 17.4636 11.6337 17.678 11.8928 17.8206C12.1519 17.9631 12.3721 18.0604 12.5536 18.1123C12.735 18.19 12.8903 18.2155 13.0198 18.1896C13.3048 18.1378 13.466 17.8526 13.5048 17.3344C13.5437 16.8162 13.5251 16.2204 13.4474 15.5467C13.5251 15.4432 13.5761 15.3388 13.602 15.2351C13.8759 13.819 14.6011 14.1296 15.7014 13.7204C15.8827 13.6168 15.921 13.4869 15.8173 13.3315C15.8173 13.3055 15.8115 13.2928 15.7986 13.2928C15.7857 13.2928 15.7787 13.2789 15.7787 13.253C16.3768 12.9526 16.7291 12.3376 17.1001 11.7769C16.784 11.276 16.2932 10.8577 15.74 10.5715C15.4433 10.2055 14.2786 10.4299 14.0297 9.8334C13.8224 9.80747 13.6671 9.76806 13.5634 9.71626C12.5141 9.03623 12.0708 7.84708 10.9405 7.3651C10.487 7.32625 10.0396 7.33322 9.59913 7.38502C10.9205 6.32271 12.359 5.53218 13.9137 5.01393ZM4.4692 15.9743C4.70239 16.3629 4.98754 16.713 5.32436 17.0239C7.07258 18.6299 8.71584 18.9702 10.9592 19.7828C11.0627 19.8605 11.2053 19.9903 11.3868 20.1717C11.6312 20.3572 11.838 20.5794 12.0873 20.7551C12.0873 20.8846 12.0676 21.0655 12.0288 21.2987C11.9899 21.5318 11.9829 21.9074 12.0088 22.4256C12.0837 23.8676 13.2729 25.0091 13.6021 26.3899C13.3101 28.1794 13.3059 29.9383 13.0972 31.7143C11.3353 30.9888 9.78783 29.9525 8.45342 28.6052C7.11905 27.2579 6.08857 25.6907 5.36306 23.9029C4.84487 22.6073 4.51449 21.2917 4.37198 19.9573C4.22929 18.6229 4.26178 17.2957 4.4692 15.9743Z" fill="#F8F2DC"/>
</svg>
